<svg width="653" height="214" viewBox="0 0 653 214" fill="none" xmlns="http://www.w3.org/2000/svg">
<path d="M106 178.667C100.136 178.667 94.5348 176.263 83.3313 171.456C55.4438 159.491 41.5 153.508 41.5 143.445V76.5237M106 178.667C111.864 178.667 117.465 176.263 128.669 171.456C156.557 159.491 170.5 153.508 170.5 143.445V76.5237M106 178.667V108.223M41.5 76.5237C41.5 80.8506 47.2446 83.5829 58.7338 89.0475L79.6691 99.0049C92.5897 105.15 99.0505 108.223 106 108.223M41.5 76.5237C41.5 72.1969 47.2446 69.4646 58.7338 64M170.5 76.5237C170.5 80.8506 164.755 83.5829 153.266 89.0475L132.331 99.0049C119.41 105.15 112.95 108.223 106 108.223M170.5 76.5237C170.5 72.1969 164.755 69.4646 153.266 64M65.3795 116.395L79.669 123.192" stroke="white" stroke-width="10.75" stroke-linecap="round" stroke-linejoin="round"/>
<path d="M106 35.3333V49.6666M134.667 42.5L123.917 56.8333M77.3333 42.5L88.0833 56.8333" stroke="white" stroke-width="10.75" stroke-linecap="round"/>
<path d="M257.264 145.488C252.248 145.488 247.804 144.388 243.932 142.188C240.148 139.988 237.112 137.216 234.824 133.872L236.276 130.044V144.168H224V42H236.144V102.06L235.748 97.44C237.948 94.448 241.072 92.028 245.12 90.18C249.256 88.244 253.832 87.276 258.848 87.276C263.776 87.276 268.264 88.464 272.312 90.84C276.36 93.216 279.572 96.56 281.948 100.872C284.412 105.096 285.644 110.156 285.644 116.052C285.644 122.212 284.324 127.492 281.684 131.892C279.132 136.292 275.7 139.68 271.388 142.056C267.076 144.344 262.368 145.488 257.264 145.488ZM254.756 135.06C258.276 135.06 261.444 134.224 264.26 132.552C267.076 130.88 269.276 128.636 270.86 125.82C272.444 122.916 273.236 119.616 273.236 115.92C273.236 112.4 272.4 109.232 270.728 106.416C269.144 103.512 266.944 101.224 264.128 99.552C261.4 97.88 258.276 97.044 254.756 97.044C251.764 97.044 248.992 97.616 246.44 98.76C243.888 99.904 241.732 101.488 239.972 103.512C238.212 105.448 236.98 107.736 236.276 110.376V121.332C236.98 123.972 238.168 126.348 239.84 128.46C241.512 130.484 243.624 132.112 246.176 133.344C248.728 134.488 251.588 135.06 254.756 135.06Z" fill="white"/>
<path d="M304.094 116.316C304.094 110.86 305.37 105.932 307.922 101.532C310.562 97.132 314.17 93.656 318.746 91.104C323.322 88.552 328.514 87.276 334.322 87.276C340.306 87.276 345.542 88.552 350.03 91.104C354.518 93.656 357.994 97.132 360.458 101.532C362.922 105.932 364.154 110.86 364.154 116.316C364.154 121.772 362.922 126.744 360.458 131.232C357.994 135.632 354.474 139.108 349.898 141.66C345.41 144.212 340.174 145.488 334.19 145.488C328.382 145.488 323.19 144.3 318.614 141.924C314.126 139.46 310.562 136.072 307.922 131.76C305.37 127.36 304.094 122.212 304.094 116.316ZM316.37 116.448C316.37 119.968 317.162 123.18 318.746 126.084C320.33 128.9 322.442 131.144 325.082 132.816C327.81 134.488 330.802 135.324 334.058 135.324C337.49 135.324 340.526 134.488 343.166 132.816C345.894 131.144 348.006 128.9 349.502 126.084C350.998 123.18 351.746 119.968 351.746 116.448C351.746 112.928 350.998 109.76 349.502 106.944C348.006 104.04 345.894 101.752 343.166 100.08C340.526 98.32 337.49 97.44 334.058 97.44C330.714 97.44 327.678 98.32 324.95 100.08C322.31 101.84 320.198 104.172 318.614 107.076C317.118 109.892 316.37 113.016 316.37 116.448Z" fill="white"/>
<path d="M406.679 109.848L419.747 89.52H432.155L411.167 118.824L406.679 109.848ZM434.267 144.168H419.483L377.903 89.52H393.083L434.267 144.168ZM405.359 123.84L390.971 144.168H378.563L399.419 115.656L405.359 123.84Z" fill="white"/>
<path d="M454.046 89.52H466.322V144.168H454.046V89.52ZM453.122 69.72C453.122 67.784 453.87 66.156 455.366 64.836C456.95 63.516 458.666 62.856 460.514 62.856C462.362 62.856 463.99 63.516 465.398 64.836C466.894 66.156 467.642 67.784 467.642 69.72C467.642 71.744 466.894 73.416 465.398 74.736C463.99 75.968 462.362 76.584 460.514 76.584C458.666 76.584 456.95 75.924 455.366 74.604C453.87 73.284 453.122 71.656 453.122 69.72Z" fill="white"/>
<path d="M520.43 171.228C516.382 171.228 512.818 170.744 509.738 169.776C506.658 168.896 503.842 167.62 501.29 165.948C498.826 164.276 496.45 162.384 494.162 160.272L501.29 151.956C504.194 154.684 507.142 156.796 510.134 158.292C513.126 159.788 516.47 160.536 520.166 160.536C524.302 160.536 527.778 159.832 530.594 158.424C533.498 157.104 535.698 155.212 537.194 152.748C538.69 150.372 539.438 147.6 539.438 144.432L539.57 129.648L540.626 132.024C539.042 135.808 536.182 139.02 532.046 141.66C527.91 144.212 522.894 145.488 516.998 145.488C511.982 145.488 507.362 144.212 503.138 141.66C499.002 139.108 495.658 135.676 493.106 131.364C490.642 126.964 489.41 122.036 489.41 116.58C489.41 110.86 490.73 105.844 493.37 101.532C496.01 97.132 499.486 93.656 503.798 91.104C508.11 88.552 512.818 87.276 517.922 87.276C522.762 87.276 527.162 88.288 531.122 90.312C535.17 92.248 538.118 94.756 539.966 97.836L539.306 100.08L540.626 89.52H551.846V144.564C551.846 149.492 550.57 153.98 548.018 158.028C545.466 162.076 541.858 165.288 537.194 167.664C532.53 170.04 526.942 171.228 520.43 171.228ZM501.686 116.316C501.686 119.836 502.522 123.048 504.194 125.952C505.866 128.856 508.11 131.144 510.926 132.816C513.83 134.488 517.042 135.324 520.562 135.324C523.818 135.324 526.722 134.752 529.274 133.608C531.914 132.376 534.114 130.748 535.874 128.724C537.634 126.612 538.866 124.192 539.57 121.464V110.64C538.778 108 537.458 105.712 535.61 103.776C533.762 101.752 531.562 100.212 529.01 99.156C526.458 98.012 523.642 97.44 520.562 97.44C517.042 97.44 513.83 98.232 510.926 99.816C508.11 101.4 505.866 103.644 504.194 106.548C502.522 109.364 501.686 112.62 501.686 116.316Z" fill="white"/>
<path d="M574.9 116.316C574.9 110.86 576.176 105.932 578.728 101.532C581.368 97.132 584.976 93.656 589.552 91.104C594.128 88.552 599.32 87.276 605.128 87.276C611.112 87.276 616.348 88.552 620.836 91.104C625.324 93.656 628.8 97.132 631.264 101.532C633.728 105.932 634.96 110.86 634.96 116.316C634.96 121.772 633.728 126.744 631.264 131.232C628.8 135.632 625.28 139.108 620.704 141.66C616.216 144.212 610.98 145.488 604.996 145.488C599.188 145.488 593.996 144.3 589.42 141.924C584.932 139.46 581.368 136.072 578.728 131.76C576.176 127.36 574.9 122.212 574.9 116.316ZM587.176 116.448C587.176 119.968 587.968 123.18 589.552 126.084C591.136 128.9 593.248 131.144 595.888 132.816C598.616 134.488 601.608 135.324 604.864 135.324C608.296 135.324 611.332 134.488 613.972 132.816C616.7 131.144 618.812 128.9 620.308 126.084C621.804 123.18 622.552 119.968 622.552 116.448C622.552 112.928 621.804 109.76 620.308 106.944C618.812 104.04 616.7 101.752 613.972 100.08C611.332 98.32 608.296 97.44 604.864 97.44C601.52 97.44 598.484 98.32 595.756 100.08C593.116 101.84 591.004 104.172 589.42 107.076C587.924 109.892 587.176 113.016 587.176 116.448Z" fill="white"/>
</svg>
